# xmcd
#
# Track frame offsets:
#	150
#	15130
#	27505
#	39279
#	49449
#	63614
#	76519
#	89043
#	105157
#	115797
#
# Disc length: 1742 seconds
#
# Revision: 0
# Processed by: cddbd v1.5.2PL0 Copyright (c) Steve Scherf et al.
# Submitted via: EZCDAudioConverter 4.0.2.1
#
DISCID=6e06cc0a
DTITLE=B.J.Thomas
DYEAR=1975
DGENRE=Country
TTITLE0=(Hey won't you play) Another somebody done somebody wrong song
TTITLE1=Real life blues
TTITLE2=Crying
TTITLE3=I finally got it right this time
TTITLE4=Doctor God
TTITLE5=Beautiful things for you
TTITLE6=Sea of love
TTITLE7=Maybe it's time to go
TTITLE8=City boys
TTITLE9=Who broke your heart and made you write that song
EXTD=
EXTT0=
EXTT1=
EXTT2=
EXTT3=
EXTT4=
EXTT5=
EXTT6=
EXTT7=
EXTT8=
EXTT9=
PLAYORDER=
